<?xml version="1.0" encoding="UTF-8" standalone="no"?>
<svg
   xmlns:dc="http://purl.org/dc/elements/1.1/"
   xmlns:cc="http://creativecommons.org/ns#"
   xmlns:rdf="http://www.w3.org/1999/02/22-rdf-syntax-ns#"
   xmlns:svg="http://www.w3.org/2000/svg"
   xmlns="http://www.w3.org/2000/svg"
   xmlns:xlink="http://www.w3.org/1999/xlink"
   xmlns:sodipodi="http://sodipodi.sourceforge.net/DTD/sodipodi-0.dtd"
   xmlns:inkscape="http://www.inkscape.org/namespaces/inkscape"
   viewBox="0 0 200.34648 132.24386"
   version="1.1"
   height="499.81198"
   width="757.21069"
   id="svg8"
   sodipodi:docname="Simulation.svg"
   inkscape:version="1.0alpha (c79a9bc365, 2019-05-29)">
  <sodipodi:namedview
     inkscape:current-layer="Base"
     inkscape:window-maximized="1"
     inkscape:window-y="0"
     inkscape:window-x="2627"
     inkscape:cy="249.90599"
     inkscape:cx="378.60535"
     inkscape:zoom="2.4392154"
     showgrid="false"
     id="namedview108"
     inkscape:window-height="1412"
     inkscape:window-width="2493"
     inkscape:pageshadow="2"
     inkscape:pageopacity="0"
     guidetolerance="10"
     gridtolerance="10"
     objecttolerance="10"
     borderopacity="1"
     inkscape:document-rotation="0"
     bordercolor="#666666"
     pagecolor="#ffffff" />
  <style
     id="style833" />
  <defs
     id="defs2">
    <inkscape:path-effect
       fuse_tolerance="0"
       hide_knot="false"
       vertical_pattern="false"
       prop_units="false"
       tang_offset="0"
       normal_offset="0"
       spacing="0"
       scale_y_rel="false"
       prop_scale="1"
       copytype="single_stretched"
       pattern="m -31.718635,0.27985247 -1.256788,0.72554003 -1.256789,0.72555 1.256789,0.72606 1.256788,0.7255499 V 2.3924125 h 22.962483 v 0.7901399 l 1.2567892,-0.7255499 1.2567973,-0.72606 -1.2567973,-0.72555 L -8.756152,0.27985247 V 1.0694725 h -22.962483 z"
       is_visible="true"
       id="path-effect3862"
       effect="skeletal" />
    <inkscape:path-effect
       fuse_tolerance="0"
       hide_knot="false"
       vertical_pattern="false"
       prop_units="false"
       tang_offset="0"
       normal_offset="0"
       spacing="0"
       scale_y_rel="false"
       prop_scale="1"
       copytype="single_stretched"
       pattern="M 2.7772508,0.22907047 1.5204627,0.95461045 0.26367374,1.6801605 1.5204627,2.4062305 2.7772508,3.1317806 V 2.3416305 l 5.6322378,0.002 V 3.1337806 L 9.6662776,2.4082304 10.923077,1.6821605 9.6662776,0.95661047 8.4094886,0.23107047 V 1.0207005 l -5.6322378,-0.002 z"
       is_visible="true"
       id="path-effect3829"
       effect="skeletal" />
    <inkscape:path-effect
       fuse_tolerance="0"
       hide_knot="false"
       vertical_pattern="false"
       prop_units="false"
       tang_offset="0"
       normal_offset="0"
       spacing="0"
       scale_y_rel="false"
       prop_scale="1"
       copytype="single_stretched"
       pattern="M 6.3514069,0.22915256 7.6081952,0.95521255 8.8649839,1.6807645 7.6081952,2.4063045 6.3514069,3.1318546 V 2.3422345 H 0.1314691 V 1.0192926 h 6.2199378 z"
       is_visible="true"
       id="path-effect3811"
       effect="skeletal" />
    <inkscape:path-effect
       fuse_tolerance="0"
       hide_knot="false"
       vertical_pattern="false"
       prop_units="false"
       tang_offset="0"
       normal_offset="0"
       spacing="0"
       scale_y_rel="false"
       prop_scale="1"
       copytype="single_stretched"
       pattern="M 29.715976,0.22913155 V 1.0187716 H 0.1315026 V 2.3417115 H 29.715976 v 0.78962 l 1.256789,-0.72554 1.2568,-0.72555 -1.2568,-0.72554995 z"
       is_visible="true"
       id="path-effect3793"
       effect="skeletal" />
    <inkscape:path-effect
       fuse_tolerance="0"
       hide_knot="false"
       vertical_pattern="false"
       prop_units="false"
       tang_offset="0"
       normal_offset="0"
       spacing="0"
       scale_y_rel="false"
       prop_scale="1"
       copytype="single_stretched"
       pattern="m 2.6270779,13.637133 -1.2567881,0.72554 -1.25678903,0.72555 1.25678903,0.72607 1.2567881,0.725551 V 15.749693 H 12.753357 v 0.790151 l 1.256789,-0.725551 1.256799,-0.72607 -1.256799,-0.72555 -1.256789,-0.72554 v 0.78963 H 2.6270779 Z"
       is_visible="true"
       id="path-effect3775"
       effect="skeletal" />
    <inkscape:path-effect
       effect="skeletal"
       id="path-effect3764"
       is_visible="true"
       pattern="M 6.3514069,0.22915256 7.6081952,0.95521255 8.8649839,1.6807645 7.6081952,2.4063045 6.3514069,3.1318546 V 2.3422345 H 0.1314691 V 1.0192926 h 6.2199378 z"
       copytype="single_stretched"
       prop_scale="1"
       scale_y_rel="false"
       spacing="0"
       normal_offset="0"
       tang_offset="0"
       prop_units="false"
       vertical_pattern="false"
       hide_knot="false"
       fuse_tolerance="0" />
    <inkscape:path-effect
       fuse_tolerance="0"
       hide_knot="false"
       vertical_pattern="false"
       prop_units="false"
       tang_offset="0"
       normal_offset="0"
       spacing="0"
       scale_y_rel="false"
       prop_scale="1"
       copytype="single_stretched"
       pattern="M 6.3514069,0.22915256 7.6081952,0.95521255 8.8649839,1.6807645 7.6081952,2.4063045 6.3514069,3.1318546 V 2.3422345 H 0.1314691 V 1.0192926 h 6.2199378 z"
       is_visible="true"
       id="path-effect3755"
       effect="skeletal" />
    <inkscape:path-effect
       fuse_tolerance="0"
       hide_knot="false"
       vertical_pattern="false"
       prop_units="false"
       tang_offset="0"
       normal_offset="0"
       spacing="0"
       scale_y_rel="false"
       prop_scale="1"
       copytype="single_stretched"
       pattern="m 2.7773228,0.22915256 -1.2567879,0.72605999 -1.256789,0.72555195 1.256789,0.72554 1.2567879,0.7255501 V 2.3422345 H 8.9972609 V 1.0192926 H 2.7773228 Z"
       is_visible="true"
       id="path-effect3739"
       effect="skeletal" />
    <inkscape:path-effect
       effect="skeletal"
       id="path-effect3726"
       is_visible="true"
       pattern="m 38.752187,5.9633406 v 0.78964 H 9.1677134 V 8.0759205 H 38.752187 v 0.78962 l 1.256789,-0.72554 1.2568,-0.72555 -1.2568,-0.72555 z"
       copytype="single_stretched"
       prop_scale="1"
       scale_y_rel="false"
       spacing="0"
       normal_offset="0"
       tang_offset="0"
       prop_units="false"
       vertical_pattern="false"
       hide_knot="false"
       fuse_tolerance="0" />
    <inkscape:path-effect
       fuse_tolerance="0"
       hide_knot="false"
       vertical_pattern="false"
       prop_units="false"
       tang_offset="0"
       normal_offset="0"
       spacing="0"
       scale_y_rel="false"
       prop_scale="1"
       copytype="single_stretched"
       pattern="m 38.752187,5.9633406 v 0.78964 H 9.1677134 V 8.0759205 H 38.752187 v 0.78962 l 1.256789,-0.72554 1.2568,-0.72555 -1.2568,-0.72555 z"
       is_visible="true"
       id="path-effect3701"
       effect="skeletal" />
    <marker
       id="marker7217"
       overflow="visible"
       orient="auto">
      <path
         inkscape:connector-curvature="0"
         id="path7215"
         transform="matrix(-0.2,0,0,-0.2,-1.2,0)"
         d="M 0,0 5,-5 -12.5,0 5,5 Z"
         fill="#f0f"
         fill-rule="evenodd"
         stroke="#f0f"
         stroke-width="1pt" />
    </marker>
    <marker
       id="marker5217"
       overflow="visible"
       orient="auto">
      <path
         inkscape:connector-curvature="0"
         id="path5215"
         transform="matrix(-0.2,0,0,-0.2,-1.2,0)"
         d="M 0,0 5,-5 -12.5,0 5,5 Z"
         fill="#0f0"
         fill-rule="evenodd"
         stroke="#0f0"
         stroke-width="1pt" />
    </marker>
    <inkscape:path-effect
       fuse_tolerance="0"
       hide_knot="false"
       vertical_pattern="false"
       prop_units="false"
       tang_offset="0"
       normal_offset="0"
       spacing="0"
       scale_y_rel="false"
       prop_scale="1"
       copytype="single_stretched"
       pattern="M 2.7767425,0.22912849 1.5199546,0.95466848 0.26316663,1.6802195 1.5199546,2.4062805 2.7767425,3.1318306 V 2.3416895 H 35.855013 V 3.1318306 L 37.111802,2.4062805 38.3686,1.6802195 37.111802,0.95466848 35.855013,0.22912849 V 1.0187495 H 2.7767425 Z"
       is_visible="true"
       id="path-effect3700"
       effect="skeletal" />
    <inkscape:path-effect
       fuse_tolerance="0"
       hide_knot="false"
       vertical_pattern="false"
       prop_units="false"
       tang_offset="0"
       normal_offset="0"
       spacing="0"
       scale_y_rel="false"
       prop_scale="1"
       copytype="single_stretched"
       pattern="M 2.7767425,0.22912849 1.5199546,0.95466848 0.26316663,1.6802195 1.5199546,2.4062805 2.7767425,3.1318306 V 2.3416895 H 24.731478 V 3.1318306 L 25.988267,2.4062805 27.245064,1.6802195 25.988267,0.95466848 24.731478,0.22912849 V 1.0187495 H 2.7767425 Z"
       is_visible="true"
       id="path-effect3684"
       effect="skeletal" />
  </defs>
  <metadata
     id="metadata5">
    <rdf:RDF>
      <cc:Work
         rdf:about="">
        <dc:format>image/svg+xml</dc:format>
        <dc:type
           rdf:resource="http://purl.org/dc/dcmitype/StillImage" />
        <dc:title />
      </cc:Work>
    </rdf:RDF>
  </metadata>
  <g
     transform="translate(30.64139,13.357281)"
     style="display:inline"
     id="Underlay"
     inkscape:groupmode="layer"
     inkscape:label="Underlay" />
  <text
     id="text2509"
     x="71.842545"
     y="115.65584"
     fill="none"
     font-family="sans-serif"
     font-size="3.5278px"
     letter-spacing="0px"
     stroke="#000000"
     stroke-width=".26459px"
     word-spacing="0px"
     style="line-height:100%"
     xml:space="preserve"><tspan
       id="tspan2507"
       x="71.842545"
       y="115.65584"
       stroke-width=".26459px" /></text>
  <g
     transform="translate(30.64139,13.357281)"
     style="display:inline"
     id="Base"
     inkscape:groupmode="layer"
     inkscape:label="Base">
    <g
       id="g8616"
       transform="translate(-6.8625001,-3.1750465)">
      <path
         inkscape:connector-curvature="0"
         id="path1314"
         d="m 170.84,93.688 a 21.363,4.6056 0 0 1 -21.363,4.6056 21.363,4.6056 0 0 1 -21.363,-4.6056 21.363,4.6056 0 0 1 21.363,-4.6056 21.363,4.6056 0 0 1 21.363,4.6056"
         fill="none"
         stroke="#000"
         stroke-width=".52917" />
      <path
         inkscape:connector-curvature="0"
         id="ellipse1316"
         d="m 128.12,93.768 v 20.446 c 0,2.5436 9.5646,4.6056 21.363,4.6056 11.7984,0 21.363,-2.062 21.363,-4.6056 V 93.886"
         fill="none"
         stroke="#000"
         stroke-width=".52917" />
      <text
         id="text1324"
         x="149.53148"
         y="103.52536"
         fill="#000000"
         font-family="sans-serif"
         font-size="3.5278px"
         letter-spacing="0px"
         stroke-width=".26458px"
         text-anchor="middle"
         word-spacing="0px"
         style="line-height:100%"
         xml:space="preserve"><tspan
           id="tspan1322"
           x="149.53148"
           y="103.52536"
           font-family="sans-serif"
           font-weight="bold"
           text-align="center">Cassandra</tspan></text>
      <path
         inkscape:connector-curvature="0"
         id="path1345"
         d="m 136.75,89.995 a 21.363,4.6056 0 0 1 -3.172,-2.4149 21.363,4.6056 0 0 1 21.363,-4.6056 21.363,4.6056 0 0 1 21.363,4.6056 21.363,4.6056 0 0 1 -8.6296,3.6981"
         fill="none"
         stroke="#000"
         stroke-width=".52917" />
      <path
         inkscape:connector-curvature="0"
         id="path1334"
         d="m 133.57,87.659 v 2.9137 m 37.293,20.602 c 3.3791,-0.81464 5.4336,-1.8901 5.4336,-3.069 v -20.328"
         fill="none"
         stroke="#000"
         stroke-width=".52917" />
    </g>
    <g
       id="g2514"
       transform="translate(15.346082,0.52917)">
      <rect
         id="rect2496"
         x="11.201"
         y="91.292"
         width="27.660999"
         height="18.187"
         ry="1.1387"
         fill="none"
         stroke="#000"
         stroke-linejoin="round"
         stroke-width=".52917" />
      <text
         id="text2500"
         x="14.817373"
         y="96.598328"
         fill="#000000"
         font-family="sans-serif"
         font-size="5.6444px"
         letter-spacing="0px"
         stroke-width=".53796"
         word-spacing="0px"
         style="line-height:125%"
         xml:space="preserve"><tspan
           id="tspan2498"
           x="14.817373"
           y="96.598328"
           fill="#000000"
           font-family="sans-serif"
           font-size="3.5278px"
           font-weight="bold"
           stroke-width=".53796">GridLAB-D</tspan></text>
    </g>
    <g
       transform="translate(12.700184)"
       id="g1358">
      <path
         inkscape:connector-curvature="0"
         id="path28142"
         d="m 45.037,104.22 h 20.994 v 8.8264 c 0,0 -1.0586,1.5114 -4.6302,1.8486 -1.9185,0.18111 -7.2169,-0.89515 -10.759,1.0742 -2.4215,1.3464 -5.6047,0.49171 -5.6047,0.49171 z"
         fill="none"
         stroke="#000"
         stroke-dashoffset="8.5171"
         stroke-linecap="round"
         stroke-linejoin="round"
         stroke-miterlimit="8"
         stroke-width=".52917" />
      <text
         id="text28177"
         x="55.378632"
         y="108.57197"
         fill="#000000"
         font-family="sans-serif"
         font-size="1.9632px"
         font-weight="bold"
         letter-spacing="0px"
         stroke-width=".14724px"
         word-spacing="0px"
         style="line-height:100%"
         xml:space="preserve"><tspan
           id="tspan28175"
           x="55.378632"
           y="108.57197"
           fill="#000000"
           font-size="3.5278px"
           stroke-width=".14724px"
           text-align="center"
           text-anchor="middle">Recorder</tspan></text>
    </g>
    <g
       transform="translate(12.700184)"
       id="g2680"
       stroke-width=".52917">
      <path
         inkscape:connector-curvature="0"
         id="rect2022"
         d="m 0.35191,78.32 h 79.835 l -12.92,40.302 h -53.984 z"
         fill="none"
         stroke="#000" />
      <text
         id="text2027"
         x="26.600138"
         y="83.26693"
         fill="#000000"
         font-family="sans-serif"
         font-size="5.6444px"
         letter-spacing="0px"
         word-spacing="0px"
         style="line-height:125%"
         xml:space="preserve"><tspan
           id="tspan2025"
           x="26.600138"
           y="83.26693"
           fill="#000000"
           font-family="sans-serif"
           font-size="3.5278px"
           font-weight="bold"
           stroke-width=".52917">Spark Worker</tspan></text>
      <text
         id="text2128"
         x="38.996586"
         y="76.267174"
         fill="#000000"
         font-family="sans-serif"
         font-size="5.6444px"
         letter-spacing="0px"
         word-spacing="0px"
         style="line-height:125%"
         xml:space="preserve"><tspan
           id="tspan2126"
           x="38.996586"
           y="76.267174"
           fill="#000000"
           font-family="sans-serif"
           font-size="3.5278px"
           font-weight="bold"
           stroke-width=".52917">Spark Worker</tspan></text>
      <path
         inkscape:connector-curvature="0"
         id="path2152"
         d="m 23.168,71.336 -2.2546,-7.0269 h 79.835 l -12.92,40.302 -8.0672,-10e-6"
         fill="none"
         stroke="#000" />
      <text
         id="text2158"
         x="51.646294"
         y="69.25547"
         fill="#000000"
         font-family="sans-serif"
         font-size="5.6444px"
         letter-spacing="0px"
         word-spacing="0px"
         style="line-height:125%"
         xml:space="preserve"><tspan
           id="tspan2156"
           x="51.646294"
           y="69.25547"
           fill="#000000"
           font-family="sans-serif"
           font-size="3.5278px"
           font-weight="bold"
           stroke-width=".52917">Spark Master</tspan></text>
      <path
         inkscape:connector-curvature="0"
         id="path2631"
         d="m 12.874,78.31 -2.2427,-6.99 h 79.835 l -12.92,40.302 h -7.9356"
         fill="none"
         stroke="#000" />
    </g>
    <g
       id="g3489"
       transform="translate(-88.783596,54.769334)">
      <path
         inkscape:connector-curvature="0"
         id="rect3822-3"
         d="m 58.406,29.604 13.49,-0.0097 -0.0398,3.4342 h 26.228 v 26.856 h -39.678 z"
         fill="none"
         stroke="#000"
         stroke-dasharray="1.05835, 0.529174"
         stroke-linejoin="round"
         stroke-miterlimit="8"
         stroke-width=".52917" />
      <text
         id="text3907-6"
         x="72.793915"
         y="38.352219"
         fill="#000000"
         font-family="sans-serif"
         font-size="3.9751px"
         letter-spacing="0px"
         style="line-height:125%"
         xml:space="preserve"><tspan
           id="tspan3905-7"
           x="72.793915"
           y="38.352219"
           font-family="sans-serif"
           font-size="3.5278px"
           font-weight="bold">HDFS</tspan></text>
    </g>
    <g
       id="g3425"
       transform="translate(11.112685,-0.52917)">
      <path
         inkscape:connector-curvature="0"
         id="path3411"
         d="m 46.624,87.82 h 20.994 v 8.8264 c 0,0 -1.0586,1.5114 -4.6302,1.8486 -1.9185,0.18111 -7.2169,-0.89515 -10.759,1.0742 -2.4215,1.3464 -5.6047,0.49171 -5.6047,0.49171 z"
         fill="none"
         stroke="#000"
         stroke-dashoffset="8.5171"
         stroke-linecap="round"
         stroke-linejoin="round"
         stroke-miterlimit="8"
         stroke-width=".52917" />
      <text
         id="text3415"
         x="56.966152"
         y="92.167564"
         fill="#000000"
         font-family="sans-serif"
         font-size="1.9632px"
         font-weight="bold"
         letter-spacing="0px"
         stroke-width=".14724px"
         word-spacing="0px"
         style="line-height:100%"
         xml:space="preserve"><tspan
           id="tspan3413"
           x="56.966152"
           y="92.167564"
           fill="#000000"
           font-size="3.5278px"
           stroke-width=".14724px"
           text-align="center"
           text-anchor="middle">Player</tspan></text>
    </g>
    <text
       xml:space="preserve"
       style="line-height:100%;opacity:1;stroke-width:0.52917;stroke-miterlimit:8;stop-opacity:1"
       word-spacing="0px"
       letter-spacing="0px"
       font-weight="bold"
       font-size="3.5278px"
       font-family="sans-serif"
       fill="#000000"
       y="34.410816"
       x="-10.461875"
       id="text28150"><tspan
         text-anchor="middle"
         text-align="center"
         stroke-width=".52917"
         stroke-miterlimit="8"
         fill="#000000"
         y="34.410816"
         x="-10.461875"
         id="tspan28148">CIM</tspan></text>
    <path
       stroke-linejoin="round"
       stroke-linecap="round"
       stroke-dashoffset="8.5171"
       stroke="#000"
       fill="none"
       d="m -27.405496,29.816273 h 33.735 v 19.597 c 0,0 -1.7011,2.3449 -7.4403,2.868 -3.0829,0.28098 -11.597,-1.3888 -17.288,1.6665 -3.8912,2.0889 -9.0062,0.76285 -9.0062,0.76285 z"
       id="path35353"
       inkscape:connector-curvature="0"
       style="opacity:1;stroke-width:0.52917;stroke-miterlimit:8;stop-opacity:1" />
    <g
       id="g3922">
      <g
         transform="translate(-8.1874145,-13.555586)"
         id="g2394">
        <rect
           stroke-width=".52917"
           stroke-linejoin="round"
           stroke="#000"
           fill="none"
           ry="2.1166999"
           height="33.806999"
           width="51.418999"
           y="38.306999"
           x="107.74"
           id="rect1206" />
        <text
           xml:space="preserve"
           style="line-height:125%"
           word-spacing="0px"
           letter-spacing="0px"
           font-size="5.6444px"
           font-family="sans-serif"
           fill="#000000"
           y="44.235291"
           x="110.88908"
           id="text1224"><tspan
             font-weight="bold"
             font-size="3.5278px"
             font-family="sans-serif"
             fill="#000000"
             y="44.235291"
             x="110.88908"
             id="tspan1222">Simulation Application</tspan></text>
      </g>
      <rect
         stroke-width=".52917"
         stroke-miterlimit="8"
         stroke-linejoin="round"
         stroke-linecap="round"
         stroke-dasharray="1.05835, 0.529174"
         fill="none"
         height="33.806999"
         width="51.418999"
         y="24.751413"
         x="97.708588"
         id="rect9008" />
      <g
         id="g3902">
        <text
           xml:space="preserve"
           style="font-size:3.5278px;line-height:100%;font-family:sans-serif;letter-spacing:0px;word-spacing:0px;opacity:1;fill:#000000;stroke-width:0.26459px;stop-opacity:1"
           y="34.523483"
           x="105.10614"
           id="text3493"><tspan
             stroke-width=".26459px"
             fill="#000000"
             y="34.523483"
             x="105.10614"
             id="tspan3491">•read CIM</tspan></text>
        <text
           xml:space="preserve"
           style="font-size:3.5278px;line-height:100%;font-family:sans-serif;letter-spacing:0px;word-spacing:0px;opacity:1;fill:#000000;stroke-width:0.26459px;stop-opacity:1"
           y="38.874435"
           x="105.10614"
           id="text3497"><tspan
             stroke-width=".26459px"
             fill="#000000"
             y="38.874435"
             x="105.10614"
             id="tspan3495">•topological analysis</tspan></text>
        <text
           xml:space="preserve"
           style="font-size:3.5278px;line-height:100%;font-family:sans-serif;letter-spacing:0px;word-spacing:0px;opacity:1;fill:#000000;stroke-width:0.26459px;stop-opacity:1"
           y="43.163376"
           x="105.10614"
           id="text3501"><tspan
             stroke-width=".26459px"
             fill="#000000"
             y="43.163376"
             x="105.10614"
             id="tspan3499">•generate GridLAB .GLM</tspan></text>
        <text
           xml:space="preserve"
           style="font-size:3.5278px;line-height:100%;font-family:sans-serif;letter-spacing:0px;word-spacing:0px;opacity:1;fill:#000000;stroke-width:0.26459px;stop-opacity:1"
           y="47.57634"
           x="105.10614"
           id="text3505"><tspan
             stroke-width=".26459px"
             fill="#000000"
             y="47.57634"
             x="105.10614"
             id="tspan3503">•read from Cassandra</tspan></text>
        <text
           xml:space="preserve"
           style="font-size:3.5278px;line-height:100%;font-family:sans-serif;letter-spacing:0px;word-spacing:0px;opacity:1;fill:#000000;stroke-width:0.26459px;stop-opacity:1"
           y="51.927292"
           x="105.10614"
           id="text3576"><tspan
             stroke-width=".26459px"
             fill="#000000"
             y="51.927292"
             x="105.10614"
             id="tspan3574">•execute GridLAB-D</tspan></text>
        <text
           xml:space="preserve"
           style="font-size:3.5278px;line-height:100%;font-family:sans-serif;letter-spacing:0px;word-spacing:0px;opacity:1;fill:#000000;stroke-width:0.26459px;stop-opacity:1"
           y="56.278244"
           x="105.10614"
           id="text3580"><tspan
             stroke-width=".26459px"
             fill="#000000"
             y="56.278244"
             x="105.10614"
             id="tspan3578">•write to Cassandra</tspan></text>
      </g>
    </g>
    <path
       inkscape:original-d="m 121.8795,72.377344 c 0,17.20423 0.45847,17.369651 -15.45278,17.369651"
       inkscape:path-effect="#path-effect3862"
       transform="translate(3.8543938,-13.408063)"
       sodipodi:nodetypes="cc"
       inkscape:connector-curvature="0"
       id="path2855"
       d="m 123.34455,75.034794 c -0.24473,-0.444053 -0.49,-0.886316 -0.73455,-1.328616 -0.24456,-0.442299 -0.48839,-0.884636 -0.73024,-1.328834 -0.24202,0.444198 -0.48235,0.890533 -0.72205,1.337049 -0.23953,0.446514 -0.47842,0.893207 -0.71773,1.338126 l 0.79065,-0.0048 c 0.0148,2.435968 0.0162,4.854869 -0.18697,7.246049 l 0,10e-7 c -0.18506,1.801762 -0.37305,3.628812 -1.42637,4.790293 -0.39831,0.47471 -0.95469,0.835464 -1.56299,1.092896 l 0,10e-7 c -0.78866,0.333235 -1.67285,0.497437 -2.58548,0.619668 -2.08946,0.273067 -4.22034,0.303296 -6.373,0.29847 l 0.002,-0.79119 c -0.4419,0.241149 -0.8875,0.48094 -1.33369,0.720906 -0.44618,0.240136 -0.89294,0.480447 -1.33714,0.722467 0.4442,0.24185 0.88648,0.486104 1.32963,0.730667 0.44315,0.244561 0.88717,0.489431 1.33486,0.732518 l 0.002,-0.79067 c 2.16782,0.0046 4.35631,-0.02987 6.54587,-0.311193 0.96624,-0.121193 1.96318,-0.315583 2.92375,-0.71023 0.76775,-0.315164 1.48987,-0.796463 2.06021,-1.454535 1.32414,-1.618888 1.61639,-3.695419 1.73915,-5.538737 l 0,-10e-7 c 0.20697,-2.465566 0.20744,-4.92427 0.19251,-7.365458 z"
       style="display:inline;fill:#ffffff;fill-opacity:1;fill-rule:evenodd;stroke:#000000;stroke-width:0.264587;stroke-linecap:butt;stroke-linejoin:miter;stroke-miterlimit:4;stroke-dasharray:none;stroke-opacity:1" />
    <path
       inkscape:path-effect="#path-effect3701"
       inkscape:original-d="m 95.331114,106.80999 41.303146,-0.0964"
       transform="translate(-15.900393,1.8779318)"
       sodipodi:nodetypes="cc"
       inkscape:connector-curvature="0"
       id="path3620"
       d="m 133.39645,105.27004 0.002,0.78964 -38.06872,0.0888 0.0031,1.32294 38.068722,-0.0888 0.002,0.78962 1.61552,-0.72932 1.61553,-0.72932 -1.61891,-0.72177 z"
       style="display:inline;fill:#ffffff;fill-opacity:1;fill-rule:evenodd;stroke:#000000;stroke-width:0.264587px;stroke-linecap:butt;stroke-linejoin:miter;stroke-opacity:1" />
    <path
       style="display:inline;fill:#ffffff;fill-opacity:1;fill-rule:evenodd;stroke:#000000;stroke-width:0.264587px;stroke-linecap:butt;stroke-linejoin:miter;stroke-opacity:1"
       d="m 133.39645,105.27004 0.002,0.78964 -38.06872,0.0888 0.0031,1.32294 38.068722,-0.0888 0.002,0.78962 1.61552,-0.72932 1.61553,-0.72932 -1.61891,-0.72177 z"
       id="path3724"
       inkscape:connector-curvature="0"
       sodipodi:nodetypes="cc"
       transform="matrix(-1,0,0,1,215.9255,-11.909147)"
       inkscape:original-d="m 95.331114,106.80999 41.303146,-0.0964"
       inkscape:path-effect="#path-effect3726" />
    <path
       inkscape:original-d="m 59.725961,95.207242 c -5.350154,0 -7.603734,2.520313 -7.603734,2.520313"
       inkscape:path-effect="#path-effect3755"
       sodipodi:nodetypes="cc"
       inkscape:connector-curvature="0"
       id="path3728"
       d="m 54.698129,97.698516 c -0.04722,-0.0077 -0.09465,-0.01507 -0.142289,-0.02198 -0.363732,-0.05364 -0.735549,-0.08853 -1.11589,-0.09097 -0.209829,-0.0013 -0.422247,0.0073 -0.637329,0.02811 0,0 0,0 0,0 -0.165096,0.01596 -0.330257,0.03732 -0.49669,0.0707 -1e-6,0 -1e-6,0 -1e-6,0 -0.04411,0.0085 -0.08842,0.0179 -0.133118,0.02918 -0.02337,-0.0017 -0.04049,0.0029 -0.05042,0.01381 -1.13e-4,1.23e-4 -1.68e-4,1.85e-4 -1.66e-4,1.84e-4 -2e-6,1e-6 5.2e-5,-6.2e-5 1.61e-4,-1.88e-4 0.0096,-0.01114 0.01332,-0.0283 0.01032,-0.05128 0.0102,-0.04528 0.02223,-0.091 0.03524,-0.13684 l 0,0 v 0 c 0.047,-0.169538 0.106205,-0.339383 0.171424,-0.50694 0,0 0,0 0,0 0.08504,-0.218356 0.182868,-0.43575 0.291507,-0.650985 0.196876,-0.390058 0.429266,-0.773029 0.685449,-1.1418 0.03382,-0.04832 0.0681,-0.09647 0.102836,-0.144447 l 0.347915,0.708211 c 1.865419,-0.909494 3.936782,-1.263952 5.958877,-1.257779 v 1.322942 c -1.871827,0.0062 -3.74889,0.315162 -5.375976,1.121385 0.116048,0.236226 0.232096,0.472452 0.348144,0.708678 z"
       style="fill:#ffffff;fill-opacity:1;fill-rule:evenodd;stroke:#000000;stroke-width:0.264587px;stroke-linecap:butt;stroke-linejoin:miter;stroke-opacity:1" />
    <path
       transform="matrix(-1,0,0,1,111.85674,12.97445)"
       style="fill:#ffffff;fill-opacity:1;fill-rule:evenodd;stroke:#000000;stroke-width:0.264587px;stroke-linecap:butt;stroke-linejoin:miter;stroke-opacity:1"
       d="m 54.698129,97.698516 c -0.04722,-0.0077 -0.09465,-0.01507 -0.142289,-0.02198 -0.363732,-0.05364 -0.735549,-0.08853 -1.11589,-0.09097 -0.209829,-0.0013 -0.422247,0.0073 -0.637329,0.02811 0,0 0,0 0,0 -0.165096,0.01596 -0.330257,0.03732 -0.49669,0.0707 -1e-6,0 -1e-6,0 -1e-6,0 -0.04411,0.0085 -0.08842,0.0179 -0.133118,0.02918 -0.02337,-0.0017 -0.04049,0.0029 -0.05042,0.01381 -1.13e-4,1.23e-4 -1.68e-4,1.85e-4 -1.66e-4,1.84e-4 -2e-6,1e-6 5.2e-5,-6.2e-5 1.61e-4,-1.88e-4 0.0096,-0.01114 0.01332,-0.0283 0.01032,-0.05128 0.0102,-0.04528 0.02223,-0.091 0.03524,-0.13684 l 0,0 v 0 c 0.047,-0.169538 0.106205,-0.339383 0.171424,-0.50694 0,0 0,0 0,0 0.08504,-0.218356 0.182868,-0.43575 0.291507,-0.650985 0.196876,-0.390058 0.429266,-0.773029 0.685449,-1.1418 0.03382,-0.04832 0.0681,-0.09647 0.102836,-0.144447 l 0.347915,0.708211 c 1.865419,-0.909494 3.936782,-1.263952 5.958877,-1.257779 v 1.322942 c -1.871827,0.0062 -3.74889,0.315162 -5.375976,1.121385 0.116048,0.236226 0.232096,0.472452 0.348144,0.708678 z"
       id="path3762"
       inkscape:connector-curvature="0"
       sodipodi:nodetypes="cc"
       inkscape:path-effect="#path-effect3764"
       inkscape:original-d="m 59.725961,95.207242 c -5.350154,0 -7.603734,2.520313 -7.603734,2.520313" />
    <path
       sodipodi:nodetypes="cc"
       transform="translate(-2.1166977,-4.2333953)"
       inkscape:original-d="M -7.7120687,57.10998 V 91.156458"
       inkscape:path-effect="#path-effect3793"
       inkscape:connector-curvature="0"
       id="path3782"
       d="M -6.2609687,88.49029 H -7.0506088 V 57.10998 h -1.3229399 v 31.38031 h -0.78962 l 0.72554,1.333079 0.72555,1.33309 0.72555,-1.33309 z"
       style="fill:#ffffff;fill-opacity:1;fill-rule:evenodd;stroke:#000000;stroke-width:0.264587px;stroke-linecap:butt;stroke-linejoin:miter;stroke-opacity:1" />
    <path
       transform="translate(3.1750465)"
       inkscape:original-d="m 122.3101,16.688826 v 7.344125"
       inkscape:path-effect="#path-effect3829"
       inkscape:connector-curvature="0"
       id="path3818"
       d="m 123.76246,18.420633 -0.72554,-0.865903 -0.72555,-0.865904 -0.72607,0.865904 -0.72556,0.865903 h 0.79016 l -0.002,3.880505 h -0.79016 l 0.72556,0.865903 0.72607,0.865911 0.72555,-0.865911 0.72554,-0.865903 h -0.78963 l 0.002,-3.880505 z"
       style="fill:#ffffff;fill-opacity:1;fill-rule:evenodd;stroke:#000000;stroke-width:0.264587px;stroke-linecap:butt;stroke-linejoin:miter;stroke-opacity:1" />
    <g
       id="g3979">
      <rect
         style="opacity:1;stop-opacity:1"
         id="rect837"
         transform="matrix(1,0,-0.46684074,0.88434141,0,0)"
         x="119.35768"
         y="8.162509"
         width="28.91"
         height="10.074984"
         fill="none"
         stroke="#000"
         stroke-width=".56272" />
      <g
         style="opacity:1;stop-opacity:1"
         id="g1056"
         transform="matrix(1,0,-0.52789,1,124.01363,-54.114586)">
        <path
           inkscape:connector-curvature="0"
           id="path839"
           d="m 26.319,61.578 v 8.6197"
           fill="none"
           stroke="#000"
           stroke-width=".26458" />
        <use
           id="use1011"
           width="100%"
           height="100%"
           xlink:href="#path839"
           x="0"
           y="0" />
        <use
           id="use1013"
           transform="translate(1.8521)"
           width="100%"
           height="100%"
           xlink:href="#path839"
           x="0"
           y="0" />
        <use
           id="use1015"
           transform="translate(3.7042)"
           width="100%"
           height="100%"
           xlink:href="#path839"
           x="0"
           y="0" />
        <use
           id="use1017"
           transform="translate(5.5562)"
           width="100%"
           height="100%"
           xlink:href="#path839"
           x="0"
           y="0" />
        <use
           id="use1019"
           transform="translate(7.4083)"
           width="100%"
           height="100%"
           xlink:href="#path839"
           x="0"
           y="0" />
        <use
           id="use1021"
           transform="translate(9.2604)"
           width="100%"
           height="100%"
           xlink:href="#path839"
           x="0"
           y="0" />
        <use
           id="use1023"
           transform="translate(11.112)"
           width="100%"
           height="100%"
           xlink:href="#path839"
           x="0"
           y="0" />
        <use
           id="use1025"
           transform="translate(12.965)"
           width="100%"
           height="100%"
           xlink:href="#path839"
           x="0"
           y="0" />
        <use
           id="use1027"
           transform="translate(14.817)"
           width="100%"
           height="100%"
           xlink:href="#path839"
           x="0"
           y="0" />
        <use
           id="use1029"
           transform="translate(16.669)"
           width="100%"
           height="100%"
           xlink:href="#path839"
           x="0"
           y="0" />
        <use
           id="use1031"
           transform="translate(18.521)"
           width="100%"
           height="100%"
           xlink:href="#path839"
           x="0"
           y="0" />
        <use
           id="use1033"
           transform="translate(20.373)"
           width="100%"
           height="100%"
           xlink:href="#path839"
           x="0"
           y="0" />
        <use
           id="use1035"
           transform="translate(22.225)"
           width="100%"
           height="100%"
           xlink:href="#path839"
           x="0"
           y="0" />
        <use
           id="use1037"
           transform="translate(24.077)"
           width="100%"
           height="100%"
           xlink:href="#path839"
           x="0"
           y="0" />
      </g>
      <g
         style="opacity:1;stop-opacity:1"
         id="g1094"
         transform="matrix(1,0,-0.52789,1,124.06363,-54.114586)">
        <path
           inkscape:connector-curvature="0"
           id="path1058"
           d="M 24.095,67.647 H 52.682"
           fill="none"
           stroke="#000"
           stroke-width=".26458px" />
        <use
           id="use1084"
           width="100%"
           height="100%"
           xlink:href="#path1058"
           x="0"
           y="0" />
        <use
           id="use1086"
           transform="translate(0,-1.8521)"
           width="100%"
           height="100%"
           xlink:href="#path1058"
           x="0"
           y="0" />
        <use
           id="use1088"
           transform="translate(0,-3.7042)"
           width="100%"
           height="100%"
           xlink:href="#path1058"
           x="0"
           y="0" />
      </g>
      <rect
         style="opacity:1;stop-opacity:1"
         id="rect835"
         x="113.65363"
         y="-13.077696"
         width="32.514"
         height="19.044001"
         fill="none"
         stroke="#000"
         stroke-width=".55917" />
      <text
         xml:space="preserve"
         style="line-height:100%;opacity:1;stroke-width:0.52917;stroke-miterlimit:8;stop-opacity:1"
         word-spacing="0px"
         letter-spacing="0px"
         font-weight="bold"
         font-size="3.5278px"
         font-family="sans-serif"
         fill="#000000"
         y="-8.5573883"
         x="129.86842"
         id="text3929"><tspan
           text-anchor="middle"
           text-align="center"
           stroke-width=".52917"
           stroke-miterlimit="8"
           fill="#000000"
           y="-8.5573883"
           x="129.86842"
           id="tspan3927">Simulate</tspan></text>
    </g>
  </g>
  <g
     transform="translate(30.64139,13.357281)"
     style="display:inline"
     id="Overlay"
     inkscape:groupmode="layer"
     inkscape:label="Overlay">
    <path
       sodipodi:nodetypes="cc"
       transform="translate(-2.1166977,-4.2333953)"
       inkscape:original-d="m 12.132534,104.25546 9.403239,0"
       inkscape:path-effect="#path-effect3811"
       inkscape:connector-curvature="0"
       id="path3809"
       d="m 18.829448,102.80411 1.353165,0.72606 1.353165,0.72555 -1.353165,0.72554 -1.353165,0.72555 v -0.78962 h -6.696914 v -1.32294 h 6.696914 z"
       style="fill:#ffffff;fill-opacity:1;fill-rule:evenodd;stroke:#000000;stroke-width:0.264587px;stroke-linecap:butt;stroke-linejoin:miter;stroke-opacity:1" />
  </g>
</svg>
