<?xml version="1.0" encoding="UTF-8" standalone="no"?>
<svg
     xmlns:dc="http://purl.org/dc/elements/1.1/"
     xmlns:cc="http://creativecommons.org/ns#"
     xmlns:rdf="http://www.w3.org/1999/02/22-rdf-syntax-ns#"
     xmlns:svg="http://www.w3.org/2000/svg"
     xmlns="http://www.w3.org/2000/svg"
     id="svg8"
     version="1.1"
     viewBox="0 0 120.60611 112.22374"
     height="112.22374mm"
     width="120.60611mm">
    <defs
         id="defs2">
        <marker
             style="overflow:visible"
             id="marker8123"
             refX="0"
             refY="0"
             orient="auto">
            <path
                 transform="matrix(0.2,0,0,0.2,1.48,0.2)"
                 style="fill:#000000;fill-opacity:1;fill-rule:evenodd;stroke:#000000;stroke-width:1.00000003pt;stroke-opacity:1"
                 d="m -2.5,-1 c 0,2.76 -2.24,5 -5,5 -2.76,0 -5,-2.24 -5,-5 0,-2.76 2.24,-5 5,-5 2.76,0 5,2.24 5,5 z"
                 id="path8121" />
        </marker>
        <marker
             orient="auto"
             refY="0"
             refX="0"
             id="marker7627"
             style="overflow:visible">
            <path
                 id="path7625"
                 d="m -2.5,-1 c 0,2.76 -2.24,5 -5,5 -2.76,0 -5,-2.24 -5,-5 0,-2.76 2.24,-5 5,-5 2.76,0 5,2.24 5,5 z"
                 style="fill:#000000;fill-opacity:1;fill-rule:evenodd;stroke:#000000;stroke-width:1.00000003pt;stroke-opacity:1"
                 transform="matrix(0.2,0,0,0.2,1.48,0.2)" />
        </marker>
    </defs>
    <metadata
         id="metadata5">
        <rdf:RDF>
            <cc:Work
                 rdf:about="">
                <dc:format>image/svg+xml</dc:format>
                <dc:type
                     rdf:resource="http://purl.org/dc/dcmitype/StillImage" />
                <dc:title></dc:title>
            </cc:Work>
        </rdf:RDF>
    </metadata>
    <g
         transform="translate(-89.190246,-140.05154)"
         id="layer1">
        <path
             style="fill:none;stroke:#000000;stroke-width:1.12308276;stroke-linecap:butt;stroke-linejoin:miter;stroke-miterlimit:4;stroke-dasharray:none;stroke-opacity:1"
             d="m 139.44001,168.9497 v 55.54049"
             id="path7234" />
        <path
             id="path7236"
             d="m 143.38038,168.9497 v 55.54049"
             style="fill:none;stroke:#000000;stroke-width:1.12308276;stroke-linecap:butt;stroke-linejoin:miter;stroke-miterlimit:4;stroke-dasharray:none;stroke-opacity:1" />
        <g
             id="g886">
            <path
                 id="path5881"
                 d="m 101.75861,247.46691 18.6578,3e-5 -2.6e-4,-25.99225 h 6.50674 c 5.07441,0 9.18805,-2.74734 9.18805,-6.1364 0,-3.38904 -4.11364,-6.13641 -9.18805,-6.13641 5.07441,0 9.18805,-2.74736 9.18805,-6.13642 0,-3.38903 -4.11364,-6.13641 -9.18805,-6.13641 5.07441,0 9.18805,-2.74735 9.18805,-6.13641 0,-3.38904 -4.11364,-6.1364 -9.18805,-6.1364 5.07441,0 9.18805,-2.74737 9.18805,-6.13641 0,-3.38905 -4.11364,-6.13642 -9.18805,-6.13642 l -6.40723,-1e-5 1e-5,-27.44267 -18.04013,4.4e-4"
                 style="opacity:1;fill:none;fill-opacity:1;stroke:#000000;stroke-width:2.24616551;stroke-linecap:butt;stroke-miterlimit:4;stroke-dasharray:none;stroke-dashoffset:0;stroke-opacity:1" />
            <circle
                 style="opacity:1;fill:none;fill-opacity:1;stroke:#000000;stroke-width:2.24616551;stroke-linecap:butt;stroke-miterlimit:4;stroke-dasharray:none;stroke-dashoffset:0;stroke-opacity:1"
                 id="circle7487"
                 cx="98.18708"
                 cy="144.92735"
                 r="3.7527349" />
            <circle
                 r="3.7527349"
                 cy="247.39946"
                 cx="98.187111"
                 id="circle7507"
                 style="opacity:1;fill:none;fill-opacity:1;stroke:#000000;stroke-width:2.24616551;stroke-linecap:butt;stroke-miterlimit:4;stroke-dasharray:none;stroke-dashoffset:0;stroke-opacity:1" />
        </g>
        <g
             transform="translate(0,2.1166667)"
             id="g937">
            <path
                 style="opacity:1;fill:none;fill-opacity:1;stroke:#000000;stroke-width:2.24895835;stroke-linecap:butt;stroke-miterlimit:4;stroke-dasharray:none;stroke-dashoffset:0;stroke-opacity:1"
                 d="m 172.22156,239.3312 -13.53577,2e-5 1.8e-4,-4.65253 h -4.72047 c -3.68136,0 -6.66571,-1.99313 -6.66571,-4.45181 0,-2.45866 2.98435,-4.45181 6.66571,-4.45181 m 0,0 c -3.68136,0 -6.66571,-1.99313 -6.66571,-4.45181 0,-2.45867 2.98435,-4.45181 6.66571,-4.45181 -3.68136,0 -6.66571,-1.99315 -6.66571,-4.45181 0,-2.45868 2.98435,-4.45182 6.66571,-4.45182 l 4.64828,-1e-5 -1e-5,-4.55308 13.08767,3.2e-4"
                 id="path888" />
            <circle
                 r="2.7225163"
                 cy="203.16339"
                 cx="-174.98836"
                 id="circle890"
                 style="opacity:1;fill:none;fill-opacity:1;stroke:#000000;stroke-width:2.24895835;stroke-linecap:butt;stroke-miterlimit:4;stroke-dasharray:none;stroke-dashoffset:0;stroke-opacity:1"
                 transform="scale(-1,1)" />
            <circle
                 style="opacity:1;fill:none;fill-opacity:1;stroke:#000000;stroke-width:2.24895835;stroke-linecap:butt;stroke-miterlimit:4;stroke-dasharray:none;stroke-dashoffset:0;stroke-opacity:1"
                 id="circle892"
                 cx="-174.81259"
                 cy="239.29309"
                 r="2.7225163"
                 transform="scale(-1,1)" />
        </g>
        <g
             transform="translate(0,-2.6458334)"
             id="g942">
            <path
                 id="path904"
                 d="m 172.35974,194.88832 -13.60844,3e-5 1.9e-4,-4.67751 h -4.74583 c -3.70112,0 -6.70149,-2.00383 -6.70149,-4.47571 0,-2.47187 3.00037,-4.47572 6.70149,-4.47572 m 0,0 c -3.70112,0 -6.70149,-2.00383 -6.70149,-4.47571 0,-2.47187 3.00037,-4.47571 6.70149,-4.47571 -3.70112,0 -6.70149,-2.00385 -6.70149,-4.47572 0,-2.47187 3.00037,-4.47572 6.70149,-4.47572 h 4.67325 l -1e-5,-4.57753 13.15793,3.2e-4"
                 style="opacity:1;fill:none;fill-opacity:1;stroke:#000000;stroke-width:2.24895835;stroke-linecap:butt;stroke-miterlimit:4;stroke-dasharray:none;stroke-dashoffset:0;stroke-opacity:1" />
            <circle
                 transform="scale(-1,1)"
                 style="opacity:1;fill:none;fill-opacity:1;stroke:#000000;stroke-width:2.24895835;stroke-linecap:butt;stroke-miterlimit:4;stroke-dasharray:none;stroke-dashoffset:0;stroke-opacity:1"
                 id="circle906"
                 cx="-175.1414"
                 cy="158.52634"
                 r="2.7371333" />
            <circle
                 transform="scale(-1,1)"
                 r="2.7371333"
                 cy="194.85001"
                 cx="-174.96469"
                 id="circle908"
                 style="opacity:1;fill:none;fill-opacity:1;stroke:#000000;stroke-width:2.24895835;stroke-linecap:butt;stroke-miterlimit:4;stroke-dasharray:none;stroke-dashoffset:0;stroke-opacity:1" />
        </g>
        <text
             id="text946"
             y="200.29449"
             x="87.389839"
             style="font-style:normal;font-variant:normal;font-weight:normal;font-stretch:normal;font-size:18.34444427px;line-height:1.25;font-family:sans-serif;-inkscape-font-specification:'sans-serif, Normal';font-variant-ligatures:normal;font-variant-caps:normal;font-variant-numeric:normal;font-feature-settings:normal;text-align:start;letter-spacing:0px;word-spacing:0px;writing-mode:lr-tb;text-anchor:start;fill:#000000;fill-opacity:1;stroke:none;stroke-width:0.26458332"
             xml:space="preserve"><tspan
                 style="stroke-width:0.26458332"
                 y="200.29449"
                 x="87.389839"
                 id="tspan944">N5</tspan></text>
        <text
             id="text950"
             y="180.92383"
             x="161.61943"
             style="font-style:normal;font-variant:normal;font-weight:normal;font-stretch:normal;font-size:18.34444427px;line-height:1.25;font-family:sans-serif;-inkscape-font-specification:'sans-serif, Normal';font-variant-ligatures:normal;font-variant-caps:normal;font-variant-numeric:normal;font-feature-settings:normal;text-align:start;letter-spacing:0px;word-spacing:0px;writing-mode:lr-tb;text-anchor:start;fill:#000000;fill-opacity:1;stroke:none;stroke-width:0.26458332"
             xml:space="preserve"><tspan
                 style="stroke-width:0.26458332"
                 y="180.92383"
                 x="161.61943"
                 id="tspan948">1kV</tspan></text>
        <text
             id="text954"
             y="231.05099"
             x="162.35876"
             style="font-style:normal;font-variant:normal;font-weight:normal;font-stretch:normal;font-size:18.34444427px;line-height:1.25;font-family:sans-serif;-inkscape-font-specification:'sans-serif, Normal';font-variant-ligatures:normal;font-variant-caps:normal;font-variant-numeric:normal;font-feature-settings:normal;text-align:start;letter-spacing:0px;word-spacing:0px;writing-mode:lr-tb;text-anchor:start;fill:#000000;fill-opacity:1;stroke:none;stroke-width:0.26458332"
             xml:space="preserve"><tspan
                 style="stroke-width:0.26458332"
                 y="231.05099"
                 x="162.35876"
                 id="tspan952">400V</tspan></text>
    </g>
</svg>
