<?xml version="1.0" encoding="UTF-8"?>
<svg id="svg8" width="1281" height="641" version="1.1" viewBox="0 0 338.93 169.6" xmlns="http://www.w3.org/2000/svg" xmlns:cc="http://creativecommons.org/ns#" xmlns:dc="http://purl.org/dc/elements/1.1/" xmlns:rdf="http://www.w3.org/1999/02/22-rdf-syntax-ns#">
 <title id="title985">CIMApplication Logo</title>
 <metadata id="metadata5">
  <rdf:RDF>
   <cc:Work rdf:about="">
    <dc:format>image/svg+xml</dc:format>
    <dc:type rdf:resource="http://purl.org/dc/dcmitype/StillImage"/>
    <dc:title>CIMApplication Logo</dc:title>
    <dc:date>01.07.2020</dc:date>
    <dc:creator>
     <cc:Agent>
      <dc:title>Derrick Oswald</dc:title>
     </cc:Agent>
    </dc:creator>
   </cc:Work>
  </rdf:RDF>
 </metadata>
 <g id="layer1" transform="matrix(1.3232 0 0 1.3232 21.17 -244.68)">
  <g id="g998" transform="matrix(1.1079 0 0 1.1011 -5.0152 -24.029)" fill="none" stroke-linejoin="round" stroke-width="8">
   <path id="path850" d="m47.369 208.37c-11.86 0.07206-23.497 5.8198-30.926 15.037 10.519 6.0736 21.038 12.147 31.557 18.221 10.338-6.1792 21.624-12.068 31.391-18.422-7.6993-9.4362-19.829-15.121-32.021-14.836z" stroke="#000"/>
   <path id="path930" d="m10.447 237.22c-7.3156 21.217 7.513 46.854 29.9 50.318 0.0013-11.371 0.0026-22.742 0.0039-34.113-9.9404-5.57-19.58-11.681-29.654-16.92z" stroke="#0f3557"/>
   <path id="path932" d="m56.008 253.61c0.12128 11.174-0.25349 22.352 0.13477 33.523 21.873-4.0243 36.705-29.21 28.873-50.268l-29.008 16.744z" stroke="#9c301a"/>
  </g>
 </g>
 <rect id="rect975" x=".13229" y=".13229" width="338.67" height="169.33" fill="none" stop-color="#000000" stroke="#000" stroke-width=".26458" style="font-variation-settings:normal"/>
 <text id="text979" x="161.61958" y="78.390045" fill="#000000" font-family="sans-serif" font-size="27.517px" letter-spacing="0px" stop-color="#000000" stroke="#000000" stroke-width=".11512" word-spacing="0px" style="line-height:100%;text-decoration-color:#000000;text-decoration-line:none" xml:space="preserve"><tspan id="tspan977" x="161.61958" y="78.390045">CIM</tspan><tspan id="tspan981" x="161.61958" y="105.90672">Application</tspan></text>
</svg>
